<?xml version="1.0" standalone="no"?>
<!DOCTYPE svg PUBLIC "-//W3C//DTD SVG 20010904//EN"
 "http://www.w3.org/TR/2001/REC-SVG-20010904/DTD/svg10.dtd">
<svg version="1.0" xmlns="http://www.w3.org/2000/svg"
 width="1200.000000pt" height="1200.000000pt" viewBox="0 0 1200.000000 1200.000000"
 preserveAspectRatio="xMidYMid meet">

<g transform="translate(0.000000,1200.000000) scale(0.100000,-0.100000)"
fill="#000000" stroke="none">
<path d="M5790 10899 c-358 -195 -733 -532 -1005 -904 -205 -281 -378 -633
-479 -977 -106 -358 -152 -724 -127 -1003 30 -329 100 -591 232 -864 55 -115
58 -125 43 -142 -30 -33 -70 -43 -131 -30 -87 17 -212 14 -282 -8 -64 -20
-145 -67 -177 -102 -18 -20 -25 -20 -184 -14 -171 8 -282 -3 -425 -40 -181
-48 -357 -150 -436 -255 -57 -75 -145 -243 -182 -345 -14 -38 -124 -322 -246
-630 -208 -526 -223 -562 -259 -590 -167 -133 -244 -283 -229 -448 5 -53 -16
-134 -244 -950 -137 -491 -260 -930 -274 -976 -57 -190 -78 -557 -41 -721 17
-77 79 -221 103 -241 7 -6 13 -15 13 -20 0 -5 -145 -9 -323 -9 -320 0 -324 0
-368 -23 -24 -13 -57 -43 -74 -66 -30 -42 -30 -44 -33 -196 -3 -137 -1 -157
16 -192 25 -48 57 -78 104 -98 34 -13 564 -15 5220 -15 5007 0 5184 1 5223 19
49 22 91 69 106 119 6 22 9 94 7 179 -3 139 -4 142 -33 184 -16 23 -50 53 -74
66 l-44 23 -479 0 -478 0 41 61 c134 195 152 422 66 799 -25 107 -54 229 -64
270 -18 68 -18 78 -5 110 9 20 16 66 16 110 0 84 -27 158 -84 230 -28 36 -30
41 -20 82 25 111 0 279 -69 462 -27 73 -41 126 -41 157 0 132 -60 456 -130
705 -87 309 -141 445 -349 881 -110 232 -218 458 -240 502 -50 98 -219 353
-303 456 -35 42 -73 91 -86 108 -97 135 -220 229 -355 273 -79 26 -90 27 -342
28 -239 1 -264 3 -315 23 -30 11 -75 28 -99 37 -79 30 -194 39 -335 26 -114
-11 -133 -10 -165 5 l-37 16 76 152 c77 154 153 361 189 517 47 203 56 295 56
550 0 223 -3 259 -28 401 -121 685 -390 1242 -828 1715 -222 239 -530 484
-750 595 -104 52 -140 52 -239 -2z m347 -238 c174 -117 270 -197 444 -371 176
-174 283 -304 409 -496 359 -547 557 -1293 490 -1849 -75 -626 -378 -1159
-860 -1513 -251 -184 -514 -544 -620 -849 -31 -88 -34 -93 -61 -93 -26 0 -27
2 -22 38 20 132 105 317 223 484 81 115 291 333 430 446 245 200 365 327 501
531 153 228 296 572 350 835 19 96 21 129 16 275 -6 175 -19 249 -67 392 -58
174 -212 439 -323 557 -56 59 -226 198 -375 307 -67 48 -90 70 -80 76 22 14
190 10 278 -7 69 -13 205 -53 274 -80 11 -4 -20 45 -72 114 -80 105 -92 126
-92 160 0 47 -8 55 -80 77 -41 13 -104 19 -243 22 l-189 5 44 20 c65 29 170
56 249 64 69 7 69 7 52 26 -64 71 -250 128 -415 128 -66 0 -155 -13 -248 -35
l-25 -7 23 21 c35 30 138 59 283 78 l127 17 -15 29 c-8 16 -51 67 -96 114 -98
102 -243 202 -412 284 -66 33 -115 59 -110 59 6 0 91 -9 190 -19 99 -11 181
-18 182 -17 1 1 -206 168 -362 291 -50 40 96 -43 202 -114z m283 -2046 c394
-55 648 -158 805 -327 71 -75 110 -151 133 -254 14 -65 14 -89 4 -171 -25
-195 -89 -398 -192 -603 -126 -251 -331 -518 -489 -637 -203 -153 -444 -389
-576 -564 -88 -117 -171 -280 -188 -365 l-11 -62 -18 72 c-61 247 -331 577
-730 896 -361 288 -653 807 -710 1261 -10 84 -10 108 4 173 23 103 62 179 133
254 182 196 484 301 995 346 25 2 198 2 385 1 244 -3 372 -8 455 -20z m385
-3235 c703 -32 1334 -115 1785 -235 103 -27 143 -81 136 -180 -3 -33 -8 -112
-11 -175 -3 -63 -8 -137 -10 -165 -2 -27 -7 -88 -10 -135 -3 -47 -8 -107 -10
-135 -2 -27 -7 -84 -10 -125 -3 -41 -8 -97 -10 -125 -3 -27 -7 -77 -9 -110
-13 -149 -17 -202 -21 -235 -2 -19 -7 -71 -10 -115 -4 -44 -8 -91 -10 -105 -2
-14 -6 -63 -10 -110 -4 -47 -8 -96 -10 -110 -2 -14 -6 -59 -10 -100 -3 -41 -8
-91 -10 -110 -2 -19 -7 -64 -10 -100 -3 -36 -8 -81 -10 -100 -2 -19 -7 -64
-10 -100 -3 -36 -8 -81 -10 -100 -2 -19 -7 -64 -10 -100 -3 -36 -8 -81 -10
-100 -4 -33 -8 -68 -20 -192 -6 -56 -14 -130 -20 -188 -2 -19 -7 -60 -10 -90
-18 -182 -25 -234 -32 -240 -7 -8 -5000 -6 -5008 2 -9 8 -109 953 -160 1498
-3 30 -9 98 -14 150 -5 52 -13 136 -17 185 -3 50 -8 97 -9 105 -1 8 -6 53 -9
100 -4 47 -9 105 -11 130 -13 134 -37 440 -50 640 -3 47 -8 112 -10 145 -16
222 -16 270 2 304 28 54 61 71 209 107 439 109 1078 190 1704 217 181 8 1554
5 1745 -3z"/>
<path d="M5830 3791 c-90 -28 -173 -100 -217 -189 -24 -50 -28 -69 -28 -147 0
-76 4 -99 26 -146 35 -75 96 -134 175 -171 61 -28 71 -30 157 -26 114 5 171
32 245 112 63 70 87 134 86 236 -1 193 -152 341 -347 339 -40 0 -83 -4 -97 -8z
m218 -154 c147 -97 122 -324 -43 -387 -79 -30 -184 -3 -239 61 -94 111 -63
273 66 338 62 32 159 26 216 -12z"/>
</g>
</svg>
